<svg xmlns="http://www.w3.org/2000/svg" viewBox="0 0 720 360" width="720" height="360" role="img" aria-label="Average division steps for random pairs" font-family="system-ui,-apple-system,'Segoe UI',Roboto,Arial,sans-serif"><title>Average division steps for random pairs</title><line x1="56" y1="308.0" x2="510" y2="308.0" stroke="#41444b" stroke-width="1"/><text x="48.0" y="312.0" fill="#8f8e96" font-size="12" text-anchor="end" font-weight="400">0</text><line x1="56" y1="241.0" x2="510" y2="241.0" stroke="#2b2e34" stroke-width="1"/><text x="48.0" y="245.0" fill="#8f8e96" font-size="12" text-anchor="end" font-weight="400">10</text><line x1="56" y1="174.0" x2="510" y2="174.0" stroke="#2b2e34" stroke-width="1"/><text x="48.0" y="178.0" fill="#8f8e96" font-size="12" text-anchor="end" font-weight="400">20</text><line x1="56" y1="107.0" x2="510" y2="107.0" stroke="#2b2e34" stroke-width="1"/><text x="48.0" y="111.0" fill="#8f8e96" font-size="12" text-anchor="end" font-weight="400">30</text><line x1="56" y1="40.0" x2="510" y2="40.0" stroke="#2b2e34" stroke-width="1"/><text x="48.0" y="44.0" fill="#8f8e96" font-size="12" text-anchor="end" font-weight="400">40</text><text x="56.0" y="328.0" fill="#8f8e96" font-size="12" text-anchor="middle" font-weight="400">1</text><text x="109.4" y="328.0" fill="#8f8e96" font-size="12" text-anchor="middle" font-weight="400">3</text><text x="189.5" y="328.0" fill="#8f8e96" font-size="12" text-anchor="middle" font-weight="400">6</text><text x="269.6" y="328.0" fill="#8f8e96" font-size="12" text-anchor="middle" font-weight="400">9</text><text x="349.8" y="328.0" fill="#8f8e96" font-size="12" text-anchor="middle" font-weight="400">12</text><text x="429.9" y="328.0" fill="#8f8e96" font-size="12" text-anchor="middle" font-weight="400">15</text><text x="510.0" y="328.0" fill="#8f8e96" font-size="12" text-anchor="middle" font-weight="400">18</text><text x="283.0" y="348.0" fill="#b9b8b2" font-size="13" text-anchor="middle" font-weight="400">digits in each number</text><text x="48.0" y="22.0" fill="#b9b8b2" font-size="13" text-anchor="start" font-weight="400">average division steps</text><polyline points="56.0,293.4 82.7,281.3 109.4,268.6 136.1,255.5 162.8,242.5 189.5,229.6 216.2,216.5 242.9,203.5 269.6,190.6 296.4,177.6 323.1,164.6 349.8,151.5 376.5,138.6 403.2,125.4 429.9,112.6 456.6,99.7 483.3,86.5 510.0,73.7" fill="none" stroke="#5b8fe0" stroke-width="2" stroke-linejoin="round" stroke-linecap="round"/><circle cx="56.0" cy="293.4" r="4" fill="#5b8fe0" stroke="#0d1117" stroke-width="2"/><circle cx="82.7" cy="281.3" r="4" fill="#5b8fe0" stroke="#0d1117" stroke-width="2"/><circle cx="109.4" cy="268.6" r="4" fill="#5b8fe0" stroke="#0d1117" stroke-width="2"/><circle cx="136.1" cy="255.5" r="4" fill="#5b8fe0" stroke="#0d1117" stroke-width="2"/><circle cx="162.8" cy="242.5" r="4" fill="#5b8fe0" stroke="#0d1117" stroke-width="2"/><circle cx="189.5" cy="229.6" r="4" fill="#5b8fe0" stroke="#0d1117" stroke-width="2"/><circle cx="216.2" cy="216.5" r="4" fill="#5b8fe0" stroke="#0d1117" stroke-width="2"/><circle cx="242.9" cy="203.5" r="4" fill="#5b8fe0" stroke="#0d1117" stroke-width="2"/><circle cx="269.6" cy="190.6" r="4" fill="#5b8fe0" stroke="#0d1117" stroke-width="2"/><circle cx="296.4" cy="177.6" r="4" fill="#5b8fe0" stroke="#0d1117" stroke-width="2"/><circle cx="323.1" cy="164.6" r="4" fill="#5b8fe0" stroke="#0d1117" stroke-width="2"/><circle cx="349.8" cy="151.5" r="4" fill="#5b8fe0" stroke="#0d1117" stroke-width="2"/><circle cx="376.5" cy="138.6" r="4" fill="#5b8fe0" stroke="#0d1117" stroke-width="2"/><circle cx="403.2" cy="125.4" r="4" fill="#5b8fe0" stroke="#0d1117" stroke-width="2"/><circle cx="429.9" cy="112.6" r="4" fill="#5b8fe0" stroke="#0d1117" stroke-width="2"/><circle cx="456.6" cy="99.7" r="4" fill="#5b8fe0" stroke="#0d1117" stroke-width="2"/><circle cx="483.3" cy="86.5" r="4" fill="#5b8fe0" stroke="#0d1117" stroke-width="2"/><circle cx="510.0" cy="73.7" r="4" fill="#5b8fe0" stroke="#0d1117" stroke-width="2"/><line x1="520.0" y1="73.7" x2="532.0" y2="73.7" stroke="#5b8fe0" stroke-width="2"/><text x="538.0" y="77.7" fill="#ecebe6" font-size="13" text-anchor="start" font-weight="600">35.0 steps</text><text x="538.0" y="93.7" fill="#b9b8b2" font-size="13" text-anchor="start" font-weight="400">at 18 digits</text><text x="64.0" y="56.8" fill="#b9b8b2" font-size="13" text-anchor="start" font-weight="400">+1.94 steps per extra digit (measured, 6 to 18 digits)</text><text x="64.0" y="74.8" fill="#b9b8b2" font-size="13" text-anchor="start" font-weight="400">Heilbronn&#x27;s formula 0.843 ln n predicts +1.94</text></svg>
