<svg xmlns="http://www.w3.org/2000/svg" viewBox="0 0 1000 280" width="1000" height="280" role="img" aria-label="41 × 59: the ticked rows add up to the answer" style="font-family:system-ui,-apple-system,'Segoe UI',Roboto,Arial,sans-serif"><title>41 × 59: the ticked rows add up to the answer</title><line x1="89.0" y1="110.0" x2="500.0" y2="190.0" style="stroke:#b9b8b2;stroke-width:1.5"/><polygon points="500.0,190.0 491.2,192.0 492.6,184.8" style="fill:#b9b8b2"/><line x1="575.0" y1="110.0" x2="500.0" y2="190.0" style="stroke:#b9b8b2;stroke-width:1.5"/><polygon points="500.0,190.0 502.9,181.5 508.3,186.5" style="fill:#b9b8b2"/><line x1="899.0" y1="110.0" x2="500.0" y2="190.0" style="stroke:#b9b8b2;stroke-width:1.5"/><polygon points="500.0,190.0 507.3,184.8 508.8,192.0" style="fill:#b9b8b2"/><rect x="20" y="40" width="138" height="70" style="fill:#0d1117;stroke:#f0584d;stroke-width:3"/><text x="32.0" y="74.7" text-anchor="start" style="fill:#ecebe6;font-size:22px;font-weight:700">1</text><text x="32.0" y="94.0" text-anchor="start" style="fill:#ecebe6;font-size:12.5px;font-weight:600">59</text><rect x="182" y="40" width="138" height="70" style="fill:#0d1117;stroke:#ecebe6;stroke-width:1.2"/><text x="194.0" y="74.7" text-anchor="start" style="fill:#ecebe6;font-size:22px;font-weight:700">2</text><text x="194.0" y="94.0" text-anchor="start" style="fill:#ecebe6;font-size:12.5px;font-weight:600">118</text><rect x="344" y="40" width="138" height="70" style="fill:#0d1117;stroke:#ecebe6;stroke-width:1.2"/><text x="356.0" y="74.7" text-anchor="start" style="fill:#ecebe6;font-size:22px;font-weight:700">4</text><text x="356.0" y="94.0" text-anchor="start" style="fill:#ecebe6;font-size:12.5px;font-weight:600">236</text><rect x="506" y="40" width="138" height="70" style="fill:#0d1117;stroke:#f0584d;stroke-width:3"/><text x="518.0" y="74.7" text-anchor="start" style="fill:#ecebe6;font-size:22px;font-weight:700">8</text><text x="518.0" y="94.0" text-anchor="start" style="fill:#ecebe6;font-size:12.5px;font-weight:600">472</text><rect x="668" y="40" width="138" height="70" style="fill:#0d1117;stroke:#ecebe6;stroke-width:1.2"/><text x="680.0" y="74.7" text-anchor="start" style="fill:#ecebe6;font-size:22px;font-weight:700">16</text><text x="680.0" y="94.0" text-anchor="start" style="fill:#ecebe6;font-size:12.5px;font-weight:600">944</text><rect x="830" y="40" width="138" height="70" style="fill:#0d1117;stroke:#f0584d;stroke-width:3"/><text x="842.0" y="74.7" text-anchor="start" style="fill:#ecebe6;font-size:22px;font-weight:700">32</text><text x="842.0" y="94.0" text-anchor="start" style="fill:#ecebe6;font-size:12.5px;font-weight:600">1,888</text><rect x="260" y="190" width="480" height="70" style="fill:#0d1117;stroke:#f0584d;stroke-width:3"/><text x="272.0" y="222.2" text-anchor="start" style="fill:#ecebe6;font-size:15px;font-weight:700">32 + 8 + 1 = 41</text><text x="272.0" y="239.4" text-anchor="start" style="fill:#ecebe6;font-size:12.5px;font-weight:600">1,888 + 472 + 59 = 2,419</text><text x="20.0" y="26.0" text-anchor="start" style="fill:#8f8e96;font-size:11px;font-weight:700;letter-spacing:.08em">LEFT COLUMN DOUBLES FROM 1; RIGHT COLUMN DOUBLES FROM 59</text></svg>
